<?xml version="1.0" encoding="UTF-8" standalone="no"?>
<svg
   width="1024pt"
   height="1024pt"
   viewBox="0 0 1024 1024"
   version="1.1"
   id="svg11"
   sodipodi:docname="dox_white.svg"
   inkscape:version="1.4 (86a8ad7, 2024-10-11)"
   xmlns:inkscape="http://www.inkscape.org/namespaces/inkscape"
   xmlns:sodipodi="http://sodipodi.sourceforge.net/DTD/sodipodi-0.dtd"
   xmlns="http://www.w3.org/2000/svg"
   xmlns:svg="http://www.w3.org/2000/svg">
  <defs
     id="defs11" />
  <sodipodi:namedview
     id="namedview11"
     pagecolor="#ffffff"
     bordercolor="#666666"
     borderopacity="1.0"
     inkscape:showpageshadow="2"
     inkscape:pageopacity="0.0"
     inkscape:pagecheckerboard="0"
     inkscape:deskcolor="#d1d1d1"
     inkscape:document-units="pt"
     showgrid="false"
     inkscape:zoom="0.42773438"
     inkscape:cx="721.242"
     inkscape:cy="603.17808"
     inkscape:window-width="2560"
     inkscape:window-height="1370"
     inkscape:window-x="2297"
     inkscape:window-y="-7"
     inkscape:window-maximized="1"
     inkscape:current-layer="#000000ff" />
  <g
     id="#ffffffff" />
  <g
     id="#000000ff">
    <path
       fill="#000000"
       opacity="1"
       d="m 463.04,56.68 c 10.88,-1.45 21.88,-0.46 32.72,0.83 22.55,2.76 44.73,9.72 64.34,21.28 27.13,15.66 49.82,39.02 64.15,66.91 14.45,28.02 20.2,60.46 16.29,91.74 -3.24,29.78 -14.13,58.29 -29.01,84.14 -1.02,1.94 -2.68,3.79 -2.55,6.13 1.13,1.66 3.26,1.21 4.99,1.34 15.34,-0.13 30.68,0 46.02,-0.08 15.68,-0.72 31.36,6.74 41.15,18.93 8.01,9.73 11.61,22.61 11.11,35.1 0.06,33.51 -0.23,67.05 0.19,100.56 21.95,7.76 42.67,19.38 59.9,35.13 9.35,9.02 18.4,18.45 25.84,29.15 19.62,27.23 30.49,60.63 30.84,94.16 0.81,29.65 -5.7,59.76 -20.31,85.7 -3.3,6.74 -8.21,12.57 -11.69,19.17 6.03,7.91 13.25,14.82 19.75,22.34 26.32,29.36 52.86,58.51 79.37,87.69 5.89,6.86 12.62,13.19 16.7,21.38 8.8,16.01 7.96,36.53 -1.52,52.06 -8.69,14.33 -24.57,23.99 -41.33,24.93 -14.51,0.94 -29.42,-4.25 -39.89,-14.41 -5.78,-5.3 -10.13,-11.88 -15.12,-17.87 -30.59,-38.88 -61.63,-77.4 -92.22,-116.27 -3.7,0.26 -7.29,1.75 -10.52,3.52 -0.41,13.63 -4.81,27.6 -14.45,37.56 -9.49,10.58 -23.54,16.9 -37.75,17.03 -159.01,0.01 -318.02,-0.02 -477.04,0 -8.42,-0.08 -16.99,0.6 -25.21,-1.66 -12.66,-3.52 -24.43,-11.35 -31.27,-22.74 -5.34,-8.8 -8.08,-19.11 -8.07,-29.38 0,-144.03 0.01,-288.06 0.01,-432.08 0.56,-13.8 6.78,-27.25 16.85,-36.68 9.35,-8.54 21.93,-13.92 34.7,-13.33 53.33,0.07 106.66,0.01 159.99,0.03 4.61,-0.07 9.26,0.32 13.86,-0.3 0.95,-2.73 -0.85,-5.15 -2.09,-7.41 -16.02,-27.56 -27.53,-58.24 -30,-90.2 -3.76,-42.3 10.09,-86.11 38.44,-117.89 10.65,-13.12 24.23,-23.52 38.38,-32.59 22.5,-13.64 48.23,-21.89 74.45,-23.92 m 3.3,30.66 c -4.13,0.39 -8.27,0.78 -12.37,1.43 -31.59,4.32 -60.82,21.55 -81.35,45.74 -17.95,20.99 -28.8,47.88 -30.56,75.43 -0.11,8.68 -0.45,17.42 0.67,26.06 2.93,23.13 12.35,44.78 22.8,65.4 8.82,17.68 19.41,34.38 30.03,51.01 12.4,19.36 25.46,38.32 39.57,56.49 11.59,14.96 23.92,29.32 36.11,43.79 1.27,1.47 2.53,2.97 4.1,4.14 2.91,0.93 4.55,-2.54 6.35,-4.19 17.26,-21.14 35.03,-41.9 50.82,-64.19 11.71,-16.14 22.48,-32.95 33.06,-49.85 18.47,-29.42 36.35,-60.27 43.36,-94.69 6.93,-36.27 -2.26,-75.51 -25.46,-104.39 C 555.94,104.61 510.83,83.94 466.34,87.34 M 148.95,379.95 c 0.08,130.75 -0.18,261.52 0.12,392.27 3.5,-2.13 6.11,-5.32 8.98,-8.17 6.49,-6.5 13.02,-12.97 19.54,-19.44 26.13,-25.54 51.77,-51.58 77.68,-77.34 28.79,-28.87 58,-57.32 86.94,-86.05 7.07,-6.66 13.27,-14.55 22.08,-19.05 15.26,-8.82 35.29,-8.09 50.03,1.51 6.66,4.16 11.84,10.15 17.42,15.59 14.68,14.65 29.3,29.36 43.95,44.04 2.26,2.32 4.43,4.77 7.14,6.6 1.49,-4.46 1.67,-9.2 2.38,-13.81 6.08,-37.58 26.2,-72.22 54.16,-97.8 31.44,-28.11 73.28,-44.92 115.63,-44.31 9.14,-0.34 18.19,1.38 27.32,1.28 0.37,-30.75 -0.05,-61.52 0.19,-92.28 0,-4.49 0.15,-9.3 -2.21,-13.31 -3.32,-6.25 -10.24,-10.26 -17.32,-10.06 -23.33,-0.06 -46.67,0.07 -70,-0.06 -1.95,0.1 -4.56,-0.33 -5.52,1.85 -26.11,39.84 -53.66,78.99 -85.82,114.23 -8.25,9.42 -21.9,15.06 -34.17,10.86 -12.09,-3.61 -19.55,-14.5 -27.65,-23.36 -25.68,-30.46 -49.01,-62.84 -70.7,-96.23 -1.59,-2.41 -2.93,-5.02 -4.91,-7.14 -3.69,-0.75 -7.49,-0.24 -11.21,-0.32 -61.67,0.01 -123.35,-0.01 -185.01,0.01 -10.71,-0.2 -19.61,10 -19.04,20.49 m 491.48,125.52 c -13.15,1.57 -26.1,4.71 -38.44,9.54 -16,6 -30.19,15.86 -43.21,26.77 -6.96,6.08 -12.52,13.51 -18.58,20.44 -7.03,8.26 -11.75,18.1 -16.15,27.92 -10.67,23.79 -13.12,50.5 -10.47,76.23 2.5,17.84 7.8,35.43 17.08,50.97 9.47,16.5 22.28,31.1 37.46,42.58 15.96,11.28 33.6,20.57 52.64,25.33 27.34,7.16 56.81,5.5 83.34,-4.18 10.32,-3.07 19.6,-8.65 28.77,-14.13 9.56,-6.22 18.5,-13.46 26.4,-21.68 10.02,-11.28 19.13,-23.48 25.9,-37 15.05,-29.23 17.75,-63.91 10.34,-95.69 -2.31,-10.96 -7.15,-21.15 -11.95,-31.2 -3.76,-8.07 -8.97,-15.39 -14.85,-22.05 -4.55,-5.12 -8.85,-10.5 -14.01,-15.04 -8.08,-7 -15.93,-14.55 -25.67,-19.23 -16.84,-9.91 -35.64,-16.23 -54.91,-19.26 -6.96,-1.34 -14.08,-0.78 -21.12,-0.88 -4.2,-0.04 -8.41,0 -12.57,0.56 m -267.4,87.58 c -35.57,34.76 -70.61,70.04 -105.81,105.17 -23.23,23.44 -46.86,46.48 -70.14,69.86 -14.89,15.12 -30.53,29.47 -45.29,44.72 -1.27,1.39 -2.46,3.15 -2.06,5.16 0.8,5.71 4.71,10.74 9.52,13.76 5.01,3.13 11.14,2.19 16.74,2.3 159,-0.02 318.01,-0.01 477.01,-0.01 4.62,-0.08 9.26,0.28 13.86,-0.21 7.59,-0.99 13.57,-8.35 13.29,-15.94 -6.09,-0.28 -12.08,1.29 -18.17,1.22 -46.5,2.13 -93.34,-16.02 -126.81,-48.26 -25.11,-23.96 -42.28,-55.86 -49.13,-89.83 -0.76,-2.93 -0.9,-6.46 -3.5,-8.46 -3.46,-2.9 -6.6,-6.14 -9.66,-9.44 -20.38,-20.61 -41.15,-40.84 -61.53,-61.46 -5.6,-5.79 -10.87,-12.98 -19.2,-14.8 -6.95,-1.98 -14.27,1.25 -19.12,6.22 m 391.34,187.27 c -4.12,3.64 -8.96,6.4 -12.8,10.35 -1.53,1.51 0.07,3.42 1.05,4.74 31,39.94 62.6,79.42 93.38,119.54 4.02,5.67 10.3,9.65 17.14,10.9 4.78,0.81 9.56,-0.83 13.79,-2.94 9.15,-4.44 14.44,-15.71 11.69,-25.55 -1.59,-5.71 -5.45,-10.38 -9.26,-14.78 -5.09,-6.17 -11.08,-11.51 -16.17,-17.68 -29.06,-31.35 -57.43,-63.37 -86.41,-94.78 -4.6,2.8 -8.14,6.97 -12.41,10.2 z"
       id="path1"
       sodipodi:nodetypes="cccccccccccccccccccccccccccccccccccccccccccccccccccccccccccccccccccccccccccccccccccccccccccccccccccccccccccccccccccccccccccccccccccccccc"
       style="fill:#ffffff;fill-opacity:1" />
    <path
       fill="#000000"
       opacity="1.00"
       d=" M 468.34 148.32 C 484.22 146.69 500.57 150.54 514.15 158.91 C 530.84 169.01 542.51 186.54 546.39 205.57 C 549.78 220.53 547.38 236.35 541.33 250.31 C 534.71 265.85 522.13 278.62 507.01 286.04 C 492.99 292.70 476.73 294.93 461.55 291.39 C 446.94 288.48 433.56 280.47 423.58 269.47 C 410.65 255.72 403.86 236.72 403.99 217.95 C 404.70 204.12 409.01 190.37 416.91 178.94 C 428.54 161.90 447.71 150.19 468.34 148.32 M 469.35 179.44 C 458.65 181.37 448.56 187.27 442.31 196.27 C 435.24 205.69 433.19 218.19 435.52 229.60 C 438.01 239.29 443.43 248.44 451.61 254.36 C 458.25 259.57 466.56 262.40 474.94 262.94 C 489.86 263.28 504.44 254.82 511.92 241.97 C 516.54 234.02 519.18 224.58 517.59 215.39 C 516.13 203.73 509.56 192.70 499.66 186.28 C 490.91 180.22 479.86 177.63 469.35 179.44 Z"
       id="path2"
       style="fill:#ffffff;fill-opacity:1" />
    <path
       fill="#000000"
       opacity="1.00"
       d=" M 277.40 411.43 C 290.05 409.83 303.18 411.76 314.71 417.26 C 333.85 425.98 348.04 444.47 352.00 465.07 C 354.32 478.02 353.79 491.74 349.03 504.11 C 343.07 520.48 330.29 534.24 314.46 541.50 C 302.08 547.22 287.96 548.61 274.56 546.44 C 256.04 543.19 239.27 531.49 229.70 515.32 C 222.61 503.60 218.87 489.78 219.72 476.06 C 219.92 458.27 228.08 441.04 240.84 428.80 C 250.88 419.47 263.76 413.12 277.40 411.43 M 279.39 442.53 C 268.09 445.02 258.07 452.86 253.55 463.60 C 244.90 480.92 253.58 503.85 270.68 512.30 C 281.36 517.94 294.98 517.61 305.31 511.32 C 311.19 507.68 316.08 502.43 319.27 496.30 C 324.72 485.87 324.60 472.92 319.55 462.36 C 312.72 447.64 295.27 438.89 279.39 442.53 Z"
       id="path3"
       style="fill:#ffffff;fill-opacity:1" />
    <path
       fill="#000000"
       opacity="1.00"
       d=" M 644.40 530.42 C 681.38 527.06 719.35 542.38 744.06 570.01 C 763.45 591.39 774.33 620.16 773.95 649.02 C 773.29 663.17 771.10 677.43 765.54 690.55 C 752.25 722.42 724.74 748.34 691.63 758.58 C 680.14 762.36 668.05 764.02 655.99 764.49 C 636.81 764.02 617.62 759.52 600.66 750.44 C 582.69 741.00 567.25 726.87 556.32 709.76 C 544.79 691.76 537.56 670.53 538.03 649.00 C 536.67 615.93 551.33 582.85 575.96 560.90 C 590.15 548.17 607.24 538.46 625.80 533.87 C 631.91 532.27 638.14 531.18 644.40 530.42 M 648.30 559.23 C 615.96 561.98 585.77 583.51 573.79 613.84 C 567.99 627.42 566.90 642.44 568.07 657.02 C 570.32 676.20 578.86 694.74 592.66 708.34 C 604.87 721.24 621.31 729.93 638.70 733.32 C 659.06 737.52 680.82 734.05 699.03 724.09 C 709.33 718.51 718.07 710.49 725.66 701.66 C 738.45 685.80 745.29 665.37 744.79 645.03 C 744.16 630.46 739.98 616.07 732.43 603.58 C 723.20 588.50 709.82 575.94 694.06 567.89 C 679.98 560.93 663.95 557.91 648.30 559.23 Z"
       id="path4"
       style="fill:#ffffff;fill-opacity:1" />
  </g>
  <g
     id="#fc3740ff">
    <path
       fill="#fc3740"
       opacity="1.00"
       d=" M 466.34 87.34 C 510.83 83.94 555.94 104.61 583.47 139.52 C 606.67 168.40 615.86 207.64 608.93 243.91 C 601.92 278.33 584.04 309.18 565.57 338.60 C 554.99 355.50 544.22 372.31 532.51 388.45 C 516.72 410.74 498.95 431.50 481.69 452.64 C 479.89 454.29 478.25 457.76 475.34 456.83 C 473.77 455.66 472.51 454.16 471.24 452.69 C 459.05 438.22 446.72 423.86 435.13 408.90 C 421.02 390.73 407.96 371.77 395.56 352.41 C 384.94 335.78 374.35 319.08 365.53 301.40 C 355.08 280.78 345.66 259.13 342.73 236.00 C 341.61 227.36 341.95 218.62 342.06 209.94 C 343.82 182.39 354.67 155.50 372.62 134.51 C 393.15 110.32 422.38 93.09 453.97 88.77 C 458.07 88.12 462.21 87.73 466.34 87.34 M 468.34 148.32 C 447.71 150.19 428.54 161.90 416.91 178.94 C 409.01 190.37 404.70 204.12 403.99 217.95 C 403.86 236.72 410.65 255.72 423.58 269.47 C 433.56 280.47 446.94 288.48 461.55 291.39 C 476.73 294.93 492.99 292.70 507.01 286.04 C 522.13 278.62 534.71 265.85 541.33 250.31 C 547.38 236.35 549.78 220.53 546.39 205.57 C 542.51 186.54 530.84 169.01 514.15 158.91 C 500.57 150.54 484.22 146.69 468.34 148.32 Z"
       id="path5"
       style="fill:#fc3740;fill-opacity:0" />
  </g>
  <g
     id="#67c9ffff">
    <path
       fill="#67c9ff"
       opacity="1"
       d="m 148.95,379.95 c -0.57,-10.49 8.33,-20.69 19.04,-20.49 61.66,-0.02 123.34,0 185.01,-0.01 3.72,0.08 7.52,-0.43 11.21,0.32 1.98,2.12 3.32,4.73 4.91,7.14 21.69,33.39 45.02,65.77 70.7,96.23 8.1,8.86 15.56,19.75 27.65,23.36 12.27,4.2 25.92,-1.44 34.17,-10.86 32.16,-35.24 59.71,-74.39 85.82,-114.23 0.96,-2.18 3.57,-1.75 5.52,-1.85 23.33,0.13 46.67,0 70,0.06 7.08,-0.2 14,3.81 17.32,10.06 2.36,4.01 2.21,8.82 2.21,13.31 -0.24,30.76 0.18,61.53 -0.19,92.28 -9.13,0.1 -18.18,-1.62 -27.32,-1.28 -42.35,-0.61 -84.19,16.2 -115.63,44.31 -27.96,25.58 -48.08,60.22 -54.16,97.8 -0.71,4.61 -0.89,9.35 -2.38,13.81 -2.71,-1.83 -4.88,-4.28 -7.14,-6.6 -14.65,-14.68 -29.27,-29.39 -43.95,-44.04 -5.58,-5.44 -10.76,-11.43 -17.42,-15.59 -14.74,-9.6 -34.77,-10.33 -50.03,-1.51 -8.81,4.5 -15.01,12.39 -22.08,19.05 -28.94,28.73 -58.15,57.18 -86.94,86.05 -25.91,25.76 -51.55,51.8 -77.68,77.34 -6.52,6.47 -13.05,12.94 -19.54,19.44 -2.87,2.85 -5.48,6.04 -8.98,8.17 -0.3,-130.75 -0.04,-261.52 -0.12,-392.27 m 128.45,31.48 c -13.64,1.69 -26.52,8.04 -36.56,17.37 -12.76,12.24 -20.92,29.47 -21.12,47.26 -0.85,13.72 2.89,27.54 9.98,39.26 9.57,16.17 26.34,27.87 44.86,31.12 13.4,2.17 27.52,0.78 39.9,-4.94 15.83,-7.26 28.61,-21.02 34.57,-37.39 4.76,-12.37 5.29,-26.09 2.97,-39.04 -3.96,-20.6 -18.15,-39.09 -37.29,-47.81 -11.53,-5.5 -24.66,-7.43 -37.31,-5.83 z"
       id="path6"
       sodipodi:nodetypes="cccccccccccccccccccccccccccccccccccccc"
       style="fill:#3986b7;fill-opacity:0" />
  </g>
  <g
     id="#ffca3fff">
    <path
       fill="#ffca3f"
       opacity="1.00"
       d=" M 279.39 442.53 C 295.27 438.89 312.72 447.64 319.55 462.36 C 324.60 472.92 324.72 485.87 319.27 496.30 C 316.08 502.43 311.19 507.68 305.31 511.32 C 294.98 517.61 281.36 517.94 270.68 512.30 C 253.58 503.85 244.90 480.92 253.55 463.60 C 258.07 452.86 268.09 445.02 279.39 442.53 Z"
       id="path7"
       style="fill:none;fill-opacity:0" />
    <path
       fill="#ffca3f"
       opacity="1"
       d="m 373.03,593.05 c 4.85,-4.97 12.17,-8.2 19.12,-6.22 8.33,1.82 13.6,9.01 19.2,14.8 20.38,20.62 41.15,40.85 61.53,61.46 3.06,3.3 6.2,6.54 9.66,9.44 2.6,2 2.74,5.53 3.5,8.46 6.85,33.97 24.02,65.87 49.13,89.83 33.47,32.24 80.31,50.39 126.81,48.26 6.09,0.07 12.08,-1.5 18.17,-1.22 0.28,7.59 -5.7,14.95 -13.29,15.94 -4.6,0.49 -9.24,0.13 -13.86,0.21 -159,0 -318.01,-0.01 -477.01,0.01 -5.6,-0.11 -11.73,0.83 -16.74,-2.3 -4.81,-3.02 -8.72,-8.05 -9.52,-13.76 -0.4,-2.01 0.79,-3.77 2.06,-5.16 14.76,-15.25 30.4,-29.6 45.29,-44.72 23.28,-23.38 46.91,-46.42 70.14,-69.86 35.2,-35.13 70.24,-70.41 105.81,-105.17 z"
       id="path8"
       sodipodi:nodetypes="cccccccccccccccccc"
       style="fill:#848757;fill-opacity:0" />
  </g>
  <g
     id="#0a446fff">
    <path
       fill="#0a446f"
       opacity="1"
       d="m 640.43,505.47 c 4.16,-0.56 8.37,-0.6 12.57,-0.56 7.04,0.1 14.16,-0.46 21.12,0.88 19.27,3.03 38.07,9.35 54.91,19.26 9.74,4.68 17.59,12.23 25.67,19.23 5.16,4.54 9.46,9.92 14.01,15.04 5.88,6.66 11.09,13.98 14.85,22.05 4.8,10.05 9.64,20.24 11.95,31.2 7.41,31.78 4.71,66.46 -10.34,95.69 -6.77,13.52 -15.88,25.72 -25.9,37 -7.9,8.22 -16.84,15.46 -26.4,21.68 -9.17,5.48 -18.45,11.06 -28.77,14.13 -26.53,9.68 -56,11.34 -83.34,4.18 -19.04,-4.76 -36.68,-14.05 -52.64,-25.33 -15.18,-11.48 -27.99,-26.08 -37.46,-42.58 -9.28,-15.54 -14.58,-33.13 -17.08,-50.97 -2.65,-25.73 -0.2,-52.44 10.47,-76.23 4.4,-9.82 9.12,-19.66 16.15,-27.92 6.06,-6.93 11.62,-14.36 18.58,-20.44 13.02,-10.91 27.21,-20.77 43.21,-26.77 12.34,-4.83 25.29,-7.97 38.44,-9.54 m 3.97,24.95 c -6.26,0.76 -12.49,1.85 -18.6,3.45 -18.56,4.59 -35.65,14.3 -49.84,27.03 -24.63,21.95 -39.29,55.03 -37.93,88.1 -0.47,21.53 6.76,42.76 18.29,60.76 10.93,17.11 26.37,31.24 44.34,40.68 16.96,9.08 36.15,13.58 55.33,14.05 12.06,-0.47 24.15,-2.13 35.64,-5.91 33.11,-10.24 60.62,-36.16 73.91,-68.03 5.56,-13.12 7.75,-27.38 8.41,-41.53 0.38,-28.86 -10.5,-57.63 -29.89,-79.01 -24.71,-27.63 -62.68,-42.95 -99.66,-39.59 z"
       id="path9"
       sodipodi:nodetypes="ccccccccccccccccccccccccccccccccc"
       style="fill:#3986b7;fill-opacity:0" />
    <path
       fill="#0a446f"
       opacity="1"
       d="m 764.37,780.32 c 4.27,-3.23 7.81,-7.4 12.41,-10.2 28.98,31.41 57.35,63.43 86.41,94.78 5.09,6.17 11.08,11.51 16.17,17.68 3.81,4.4 7.67,9.07 9.26,14.78 2.75,9.84 -2.54,21.11 -11.69,25.55 -4.23,2.11 -9.01,3.75 -13.79,2.94 -6.84,-1.25 -13.12,-5.23 -17.14,-10.9 -30.78,-40.12 -62.38,-79.6 -93.38,-119.54 -0.98,-1.32 -2.58,-3.23 -1.05,-4.74 3.84,-3.95 8.68,-6.71 12.8,-10.35 z"
       id="path10"
       style="fill:#848757;fill-opacity:0"
       sodipodi:nodetypes="ccccccccccc" />
  </g>
</svg>
