<?xml version="1.0" encoding="UTF-8" ?>
<!DOCTYPE svg PUBLIC "-//W3C//DTD SVG 1.1//EN" "http://www.w3.org/Graphics/SVG/1.1/DTD/svg11.dtd">
<svg width="1024pt" height="1024pt" viewBox="0 0 1024 1024" version="1.1" xmlns="http://www.w3.org/2000/svg">
<g id="#ffffffff">
</g>
<g id="#000000ff">
<path fill="#000000" opacity="1.00" d=" M 463.04 56.68 C 473.92 55.23 484.92 56.22 495.76 57.51 C 518.31 60.27 540.49 67.23 560.10 78.79 C 587.23 94.45 609.92 117.81 624.25 145.70 C 638.70 173.72 644.45 206.16 640.54 237.44 C 637.30 267.22 626.41 295.73 611.53 321.58 C 610.51 323.52 608.85 325.37 608.98 327.71 C 610.11 329.37 612.24 328.92 613.97 329.05 C 629.31 328.92 644.65 329.05 659.99 328.97 C 675.67 328.25 691.35 335.71 701.14 347.90 C 709.15 357.63 712.75 370.51 712.25 383.00 C 712.31 416.51 712.02 450.05 712.44 483.56 C 734.39 491.32 755.11 502.94 772.34 518.69 C 781.69 527.71 790.74 537.14 798.18 547.84 C 817.80 575.07 828.67 608.47 829.02 642.00 C 829.83 671.65 823.32 701.76 808.71 727.70 C 805.41 734.44 800.50 740.27 797.02 746.87 C 803.05 754.78 810.27 761.69 816.77 769.21 C 843.09 798.57 869.63 827.72 896.14 856.90 C 902.03 863.76 908.76 870.09 912.84 878.28 C 921.64 894.29 920.80 914.81 911.32 930.34 C 902.63 944.67 886.75 954.33 869.99 955.27 C 855.48 956.21 840.57 951.02 830.10 940.86 C 824.32 935.56 819.97 928.98 814.98 922.99 C 784.39 884.11 753.35 845.59 722.76 806.72 C 719.06 806.98 715.47 808.47 712.24 810.24 C 711.83 823.87 707.43 837.84 697.79 847.80 C 688.30 858.38 674.25 864.70 660.04 864.83 C 501.03 864.84 342.02 864.81 183.00 864.83 C 174.58 864.75 166.01 865.43 157.79 863.17 C 145.13 859.65 133.36 851.82 126.52 840.43 C 121.18 831.63 118.44 821.32 118.45 811.05 C 118.45 667.02 118.46 522.99 118.46 378.97 C 119.02 365.17 125.24 351.72 135.31 342.29 C 144.66 333.75 157.24 328.37 170.01 328.96 C 223.34 329.03 276.67 328.97 330.00 328.99 C 334.61 328.92 339.26 329.31 343.86 328.69 C 344.81 325.96 343.01 323.54 341.77 321.28 C 325.75 293.72 314.24 263.04 311.77 231.08 C 308.01 188.78 321.86 144.97 350.21 113.19 C 360.86 100.07 374.44 89.67 388.59 80.60 C 411.09 66.96 436.82 58.71 463.04 56.68 M 466.34 87.34 C 462.21 87.73 458.07 88.12 453.97 88.77 C 422.38 93.09 393.15 110.32 372.62 134.51 C 354.67 155.50 343.82 182.39 342.06 209.94 C 341.95 218.62 341.61 227.36 342.73 236.00 C 345.66 259.13 355.08 280.78 365.53 301.40 C 374.35 319.08 384.94 335.78 395.56 352.41 C 407.96 371.77 421.02 390.73 435.13 408.90 C 446.72 423.86 459.05 438.22 471.24 452.69 C 472.51 454.16 473.77 455.66 475.34 456.83 C 478.25 457.76 479.89 454.29 481.69 452.64 C 498.95 431.50 516.72 410.74 532.51 388.45 C 544.22 372.31 554.99 355.50 565.57 338.60 C 584.04 309.18 601.92 278.33 608.93 243.91 C 615.86 207.64 606.67 168.40 583.47 139.52 C 555.94 104.61 510.83 83.94 466.34 87.34 M 148.95 379.95 C 149.03 510.70 148.77 641.47 149.07 772.22 C 152.57 770.09 155.18 766.90 158.05 764.05 C 164.54 757.55 171.07 751.08 177.59 744.61 C 203.72 719.07 229.36 693.03 255.27 667.27 C 284.06 638.40 313.27 609.95 342.21 581.22 C 349.28 574.56 355.48 566.67 364.29 562.17 C 379.55 553.35 399.58 554.08 414.32 563.68 C 420.98 567.84 426.16 573.83 431.74 579.27 C 446.42 593.92 461.04 608.63 475.69 623.31 C 477.95 625.63 480.12 628.08 482.83 629.91 C 484.32 625.45 484.50 620.71 485.21 616.10 C 491.29 578.52 511.41 543.88 539.37 518.30 C 570.81 490.19 612.65 473.38 655.00 473.99 C 664.14 473.65 673.19 475.37 682.32 475.27 C 682.69 444.52 682.27 413.75 682.51 382.99 C 682.51 378.50 682.66 373.69 680.30 369.68 C 676.98 363.43 670.06 359.42 662.98 359.62 C 639.65 359.56 616.31 359.69 592.98 359.56 C 591.03 359.66 588.42 359.23 587.46 361.41 C 561.35 401.25 533.80 440.40 501.64 475.64 C 493.39 485.06 479.74 490.70 467.47 486.50 C 455.38 482.89 447.92 472.00 439.82 463.14 C 414.14 432.68 390.81 400.30 369.12 366.91 C 367.53 364.50 366.19 361.89 364.21 359.77 C 360.52 359.02 356.72 359.53 353.00 359.45 C 291.33 359.46 229.65 359.44 167.99 359.46 C 157.28 359.26 148.38 369.46 148.95 379.95 M 640.43 505.47 C 627.28 507.04 614.33 510.18 601.99 515.01 C 585.99 521.01 571.80 530.87 558.78 541.78 C 551.82 547.86 546.26 555.29 540.20 562.22 C 533.17 570.48 528.45 580.32 524.05 590.14 C 513.38 613.93 510.93 640.64 513.58 666.37 C 516.08 684.21 521.38 701.80 530.66 717.34 C 540.13 733.84 552.94 748.44 568.12 759.92 C 584.08 771.20 601.72 780.49 620.76 785.25 C 648.10 792.41 677.57 790.75 704.10 781.07 C 714.42 778.00 723.70 772.42 732.87 766.94 C 742.43 760.72 751.37 753.48 759.27 745.26 C 769.29 733.98 778.40 721.78 785.17 708.26 C 800.22 679.03 802.92 644.35 795.51 612.57 C 793.20 601.61 788.36 591.42 783.56 581.37 C 779.80 573.30 774.59 565.98 768.71 559.32 C 764.16 554.20 759.86 548.82 754.70 544.28 C 746.62 537.28 738.77 529.73 729.03 525.05 C 712.19 515.14 693.39 508.82 674.12 505.79 C 667.16 504.45 660.04 505.01 653.00 504.91 C 648.80 504.87 644.59 504.91 640.43 505.47 M 373.03 593.05 C 337.46 627.81 302.42 663.09 267.22 698.22 C 243.99 721.66 220.36 744.70 197.08 768.08 C 182.19 783.20 166.55 797.55 151.79 812.80 C 150.52 814.19 149.33 815.95 149.73 817.96 C 150.53 823.67 154.44 828.70 159.25 831.72 C 164.26 834.85 170.39 833.91 175.99 834.02 C 334.99 834.00 494.00 834.01 653.00 834.01 C 657.62 833.93 662.26 834.29 666.86 833.80 C 674.45 832.81 680.43 825.45 680.15 817.86 C 674.06 817.58 668.07 819.15 661.98 819.08 C 615.48 821.21 568.64 803.06 535.17 770.82 C 510.06 746.86 492.89 714.96 486.04 680.99 C 485.28 678.06 485.14 674.53 482.54 672.53 C 479.08 669.63 475.94 666.39 472.88 663.09 C 452.50 642.48 431.73 622.25 411.35 601.63 C 405.75 595.84 400.48 588.65 392.15 586.83 C 385.20 584.85 377.88 588.08 373.03 593.05 M 764.37 780.32 C 760.25 783.96 755.41 786.72 751.57 790.67 C 750.04 792.18 751.64 794.09 752.62 795.41 C 783.62 835.35 815.22 874.83 846.00 914.95 C 850.02 920.62 856.30 924.60 863.14 925.85 C 867.92 926.66 872.70 925.02 876.93 922.91 C 886.08 918.47 891.37 907.20 888.62 897.36 C 887.03 891.65 883.17 886.98 879.36 882.58 C 874.27 876.41 868.28 871.07 863.19 864.90 C 834.13 833.55 805.76 801.53 776.78 770.12 C 772.18 772.92 768.64 777.09 764.37 780.32 Z" />
<path fill="#000000" opacity="1.00" d=" M 468.34 148.32 C 484.22 146.69 500.57 150.54 514.15 158.91 C 530.84 169.01 542.51 186.54 546.39 205.57 C 549.78 220.53 547.38 236.35 541.33 250.31 C 534.71 265.85 522.13 278.62 507.01 286.04 C 492.99 292.70 476.73 294.93 461.55 291.39 C 446.94 288.48 433.56 280.47 423.58 269.47 C 410.65 255.72 403.86 236.72 403.99 217.95 C 404.70 204.12 409.01 190.37 416.91 178.94 C 428.54 161.90 447.71 150.19 468.34 148.32 M 469.35 179.44 C 458.65 181.37 448.56 187.27 442.31 196.27 C 435.24 205.69 433.19 218.19 435.52 229.60 C 438.01 239.29 443.43 248.44 451.61 254.36 C 458.25 259.57 466.56 262.40 474.94 262.94 C 489.86 263.28 504.44 254.82 511.92 241.97 C 516.54 234.02 519.18 224.58 517.59 215.39 C 516.13 203.73 509.56 192.70 499.66 186.28 C 490.91 180.22 479.86 177.63 469.35 179.44 Z" />
<path fill="#000000" opacity="1.00" d=" M 277.40 411.43 C 290.05 409.83 303.18 411.76 314.71 417.26 C 333.85 425.98 348.04 444.47 352.00 465.07 C 354.32 478.02 353.79 491.74 349.03 504.11 C 343.07 520.48 330.29 534.24 314.46 541.50 C 302.08 547.22 287.96 548.61 274.56 546.44 C 256.04 543.19 239.27 531.49 229.70 515.32 C 222.61 503.60 218.87 489.78 219.72 476.06 C 219.92 458.27 228.08 441.04 240.84 428.80 C 250.88 419.47 263.76 413.12 277.40 411.43 M 279.39 442.53 C 268.09 445.02 258.07 452.86 253.55 463.60 C 244.90 480.92 253.58 503.85 270.68 512.30 C 281.36 517.94 294.98 517.61 305.31 511.32 C 311.19 507.68 316.08 502.43 319.27 496.30 C 324.72 485.87 324.60 472.92 319.55 462.36 C 312.72 447.64 295.27 438.89 279.39 442.53 Z" />
<path fill="#000000" opacity="1.00" d=" M 644.40 530.42 C 681.38 527.06 719.35 542.38 744.06 570.01 C 763.45 591.39 774.33 620.16 773.95 649.02 C 773.29 663.17 771.10 677.43 765.54 690.55 C 752.25 722.42 724.74 748.34 691.63 758.58 C 680.14 762.36 668.05 764.02 655.99 764.49 C 636.81 764.02 617.62 759.52 600.66 750.44 C 582.69 741.00 567.25 726.87 556.32 709.76 C 544.79 691.76 537.56 670.53 538.03 649.00 C 536.67 615.93 551.33 582.85 575.96 560.90 C 590.15 548.17 607.24 538.46 625.80 533.87 C 631.91 532.27 638.14 531.18 644.40 530.42 M 648.30 559.23 C 615.96 561.98 585.77 583.51 573.79 613.84 C 567.99 627.42 566.90 642.44 568.07 657.02 C 570.32 676.20 578.86 694.74 592.66 708.34 C 604.87 721.24 621.31 729.93 638.70 733.32 C 659.06 737.52 680.82 734.05 699.03 724.09 C 709.33 718.51 718.07 710.49 725.66 701.66 C 738.45 685.80 745.29 665.37 744.79 645.03 C 744.16 630.46 739.98 616.07 732.43 603.58 C 723.20 588.50 709.82 575.94 694.06 567.89 C 679.98 560.93 663.95 557.91 648.30 559.23 Z" />
</g>
<g id="#fc3740ff">
<path fill="#fc3740" opacity="1.00" d=" M 466.34 87.34 C 510.83 83.94 555.94 104.61 583.47 139.52 C 606.67 168.40 615.86 207.64 608.93 243.91 C 601.92 278.33 584.04 309.18 565.57 338.60 C 554.99 355.50 544.22 372.31 532.51 388.45 C 516.72 410.74 498.95 431.50 481.69 452.64 C 479.89 454.29 478.25 457.76 475.34 456.83 C 473.77 455.66 472.51 454.16 471.24 452.69 C 459.05 438.22 446.72 423.86 435.13 408.90 C 421.02 390.73 407.96 371.77 395.56 352.41 C 384.94 335.78 374.35 319.08 365.53 301.40 C 355.08 280.78 345.66 259.13 342.73 236.00 C 341.61 227.36 341.95 218.62 342.06 209.94 C 343.82 182.39 354.67 155.50 372.62 134.51 C 393.15 110.32 422.38 93.09 453.97 88.77 C 458.07 88.12 462.21 87.73 466.34 87.34 M 468.34 148.32 C 447.71 150.19 428.54 161.90 416.91 178.94 C 409.01 190.37 404.70 204.12 403.99 217.95 C 403.86 236.72 410.65 255.72 423.58 269.47 C 433.56 280.47 446.94 288.48 461.55 291.39 C 476.73 294.93 492.99 292.70 507.01 286.04 C 522.13 278.62 534.71 265.85 541.33 250.31 C 547.38 236.35 549.78 220.53 546.39 205.57 C 542.51 186.54 530.84 169.01 514.15 158.91 C 500.57 150.54 484.22 146.69 468.34 148.32 Z" />
</g>
<g id="#67c9ffff">
<path fill="#67c9ff" opacity="1.00" d=" M 148.95 379.95 C 148.38 369.46 157.28 359.26 167.99 359.46 C 229.65 359.44 291.33 359.46 353.00 359.45 C 356.72 359.53 360.52 359.02 364.21 359.77 C 366.19 361.89 367.53 364.50 369.12 366.91 C 390.81 400.30 414.14 432.68 439.82 463.14 C 447.92 472.00 455.38 482.89 467.47 486.50 C 479.74 490.70 493.39 485.06 501.64 475.64 C 533.80 440.40 561.35 401.25 587.46 361.41 C 588.42 359.23 591.03 359.66 592.98 359.56 C 616.31 359.69 639.65 359.56 662.98 359.62 C 670.06 359.42 676.98 363.43 680.30 369.68 C 682.66 373.69 682.51 378.50 682.51 382.99 C 682.27 413.75 682.69 444.52 682.32 475.27 C 673.19 475.37 664.14 473.65 655.00 473.99 C 612.65 473.38 570.81 490.19 539.37 518.30 C 511.41 543.88 491.29 578.52 485.21 616.10 C 484.50 620.71 484.32 625.45 482.83 629.91 C 480.12 628.08 477.95 625.63 475.69 623.31 C 461.04 608.63 446.42 593.92 431.74 579.27 C 426.16 573.83 420.98 567.84 414.32 563.68 C 399.58 554.08 379.55 553.35 364.29 562.17 C 355.48 566.67 349.28 574.56 342.21 581.22 C 313.27 609.95 284.06 638.40 255.27 667.27 C 229.36 693.03 203.72 719.07 177.59 744.61 C 171.07 751.08 164.54 757.55 158.05 764.05 C 155.18 766.90 152.57 770.09 149.07 772.22 C 148.77 641.47 149.03 510.70 148.95 379.95 M 277.40 411.43 C 263.76 413.12 250.88 419.47 240.84 428.80 C 228.08 441.04 219.92 458.27 219.72 476.06 C 218.87 489.78 222.61 503.60 229.70 515.32 C 239.27 531.49 256.04 543.19 274.56 546.44 C 287.96 548.61 302.08 547.22 314.46 541.50 C 330.29 534.24 343.07 520.48 349.03 504.11 C 353.79 491.74 354.32 478.02 352.00 465.07 C 348.04 444.47 333.85 425.98 314.71 417.26 C 303.18 411.76 290.05 409.83 277.40 411.43 Z" />
</g>
<g id="#ffca3fff">
<path fill="#ffca3f" opacity="1.00" d=" M 279.39 442.53 C 295.27 438.89 312.72 447.64 319.55 462.36 C 324.60 472.92 324.72 485.87 319.27 496.30 C 316.08 502.43 311.19 507.68 305.31 511.32 C 294.98 517.61 281.36 517.94 270.68 512.30 C 253.58 503.85 244.90 480.92 253.55 463.60 C 258.07 452.86 268.09 445.02 279.39 442.53 Z" />
<path fill="#ffca3f" opacity="1.00" d=" M 373.03 593.05 C 377.88 588.08 385.20 584.85 392.15 586.83 C 400.48 588.65 405.75 595.84 411.35 601.63 C 431.73 622.25 452.50 642.48 472.88 663.09 C 475.94 666.39 479.08 669.63 482.54 672.53 C 485.14 674.53 485.28 678.06 486.04 680.99 C 492.89 714.96 510.06 746.86 535.17 770.82 C 568.64 803.06 615.48 821.21 661.98 819.08 C 668.07 819.15 674.06 817.58 680.15 817.86 C 680.43 825.45 674.45 832.81 666.86 833.80 C 662.26 834.29 657.62 833.93 653.00 834.01 C 494.00 834.01 334.99 834.00 175.99 834.02 C 170.39 833.91 164.26 834.85 159.25 831.72 C 154.44 828.70 150.53 823.67 149.73 817.96 C 149.33 815.95 150.52 814.19 151.79 812.80 C 166.55 797.55 182.19 783.20 197.08 768.08 C 220.36 744.70 243.99 721.66 267.22 698.22 C 302.42 663.09 337.46 627.81 373.03 593.05 Z" />
</g>
<g id="#0a446fff">
<path fill="#0a446f" opacity="1.00" d=" M 640.43 505.47 C 644.59 504.91 648.80 504.87 653.00 504.91 C 660.04 505.01 667.16 504.45 674.12 505.79 C 693.39 508.82 712.19 515.14 729.03 525.05 C 738.77 529.73 746.62 537.28 754.70 544.28 C 759.86 548.82 764.16 554.20 768.71 559.32 C 774.59 565.98 779.80 573.30 783.56 581.37 C 788.36 591.42 793.20 601.61 795.51 612.57 C 802.92 644.35 800.22 679.03 785.17 708.26 C 778.40 721.78 769.29 733.98 759.27 745.26 C 751.37 753.48 742.43 760.72 732.87 766.94 C 723.70 772.42 714.42 778.00 704.10 781.07 C 677.57 790.75 648.10 792.41 620.76 785.25 C 601.72 780.49 584.08 771.20 568.12 759.92 C 552.94 748.44 540.13 733.84 530.66 717.34 C 521.38 701.80 516.08 684.21 513.58 666.37 C 510.93 640.64 513.38 613.93 524.05 590.14 C 528.45 580.32 533.17 570.48 540.20 562.22 C 546.26 555.29 551.82 547.86 558.78 541.78 C 571.80 530.87 585.99 521.01 601.99 515.01 C 614.33 510.18 627.28 507.04 640.43 505.47 M 644.40 530.42 C 638.14 531.18 631.91 532.27 625.80 533.87 C 607.24 538.46 590.15 548.17 575.96 560.90 C 551.33 582.85 536.67 615.93 538.03 649.00 C 537.56 670.53 544.79 691.76 556.32 709.76 C 567.25 726.87 582.69 741.00 600.66 750.44 C 617.62 759.52 636.81 764.02 655.99 764.49 C 668.05 764.02 680.14 762.36 691.63 758.58 C 724.74 748.34 752.25 722.42 765.54 690.55 C 771.10 677.43 773.29 663.17 773.95 649.02 C 774.33 620.16 763.45 591.39 744.06 570.01 C 719.35 542.38 681.38 527.06 644.40 530.42 Z" />
<path fill="#0a446f" opacity="1.00" d=" M 764.37 780.32 C 768.64 777.09 772.18 772.92 776.78 770.12 C 805.76 801.53 834.13 833.55 863.19 864.90 C 868.28 871.07 874.27 876.41 879.36 882.58 C 883.17 886.98 887.03 891.65 888.62 897.36 C 891.37 907.20 886.08 918.47 876.93 922.91 C 872.70 925.02 867.92 926.66 863.14 925.85 C 856.30 924.60 850.02 920.62 846.00 914.95 C 815.22 874.83 783.62 835.35 752.62 795.41 C 751.64 794.09 750.04 792.18 751.57 790.67 C 755.41 786.72 760.25 783.96 764.37 780.32 Z" />
</g>
<g id="#d6ecf8ff">
<path fill="#d6ecf8" opacity="1.00" d=" M 648.30 559.23 C 663.95 557.91 679.98 560.93 694.06 567.89 C 709.82 575.94 723.20 588.50 732.43 603.58 C 739.98 616.07 744.16 630.46 744.79 645.03 C 745.29 665.37 738.45 685.80 725.66 701.66 C 718.07 710.49 709.33 718.51 699.03 724.09 C 680.82 734.05 659.06 737.52 638.70 733.32 C 621.31 729.93 604.87 721.24 592.66 708.34 C 578.86 694.74 570.32 676.20 568.07 657.02 C 566.90 642.44 567.99 627.42 573.79 613.84 C 585.77 583.51 615.96 561.98 648.30 559.23 Z" />
</g>
</svg>
